<svg width="500" height="500" viewBox="0 0 500 500" fill="none" xmlns="http://www.w3.org/2000/svg">
<g clip-path="url(#clip0_1_3)">
<rect width="500" height="500" rx="50" fill="#6B37AA"/>
<path d="M272.864 256.998C293.982 256.998 309.976 253.421 320.846 246.269C331.871 239.116 339.169 230.409 342.74 220.147C346.465 209.884 348.871 192.78 349.959 168.835C351.046 142.246 356.947 122.499 367.661 109.594C378.531 96.5324 396.31 90.0018 421 90.0018V98.8648C412.149 99.4866 406.093 102.985 402.832 109.36C399.727 115.58 398.175 128.874 398.175 149.244C398.175 179.098 394.992 202.188 388.625 218.515C382.414 234.686 369.836 247.825 350.892 257.931C331.947 268.038 305.937 273.48 272.862 274.258V348.193C272.862 366.385 273.871 378.202 275.889 383.644C278.064 388.931 282.489 393.207 289.165 396.472C295.997 399.738 306.479 401.37 320.61 401.37V410H180.393V401.37C194.212 401.213 204.461 399.735 211.139 396.939C217.971 393.984 222.475 389.786 224.649 384.343C226.976 378.746 228.14 366.695 228.14 348.192V274.257C194.755 273.48 168.823 268.116 150.344 258.164C131.866 248.212 119.288 235.229 112.611 219.213C106.09 203.042 102.829 179.64 102.829 149.009C102.829 129.417 101.353 116.434 98.4002 110.058C95.4478 103.528 89.3144 99.7958 80 98.8629V90C95.6836 90.3103 108.339 92.7982 117.966 97.4636C127.594 102.128 135.28 110.369 141.025 122.186C146.926 134.004 150.264 149.553 151.041 168.833C152.128 192.623 154.379 209.649 157.794 219.911C161.367 230.173 168.743 238.959 179.922 246.266C191.102 253.419 207.174 256.995 228.137 256.995V155.305C228.137 137.113 227.049 125.374 224.874 120.087C222.857 114.645 218.509 110.368 211.83 107.258C205.153 104.149 194.672 102.516 180.385 102.36V93.7307H320.603V102.36C306.317 102.518 295.835 104.151 289.157 107.258C282.48 110.213 278.055 114.411 275.881 119.854C273.864 125.296 272.855 137.113 272.855 155.305L272.864 256.998Z" fill="white"/>
</g>
<defs>
<clipPath id="clip0_1_3">
<rect width="500" height="500" fill="white"/>
</clipPath>
</defs>
</svg>
